<svg xmlns="http://www.w3.org/2000/svg" viewBox="0 0 100 100">
  <!-- Genie Lamp -->
  <g fill="#FFD700">
    <!-- Lamp body -->
    <path d="M 30 50 Q 30 70 40 75 L 60 75 Q 70 70 70 50 Z" fill="#D4AF37"/>
    <!-- Lamp spout -->
    <path d="M 25 50 Q 20 48 20 45 Q 20 42 25 40" stroke="#D4AF37" stroke-width="3" fill="none"/>
    <!-- Lamp handle -->
    <path d="M 70 50 Q 80 50 80 40" stroke="#D4AF37" stroke-width="3" fill="none"/>
  </g>
  <!-- Magic smoke/genie -->
  <g fill="#9370DB" opacity="0.8">
    <circle cx="50" cy="30" r="8"/>
    <circle cx="40" cy="20" r="6"/>
    <circle cx="60" cy="22" r="6"/>
  </g>
  <!-- Star sparkles -->
  <g fill="#FFB6C1">
    <polygon points="35,15 37,21 43,21 38,25 40,31 35,27 30,31 32,25 27,21 33,21"/>
    <polygon points="65,25 67,31 73,31 68,35 70,41 65,37 60,41 62,35 57,31 63,31"/>
  </g>
</svg>
